<svg enable-background="new 0 0 2230.4 1817.9" viewBox="0 0 2230.4 1817.9" xmlns="http://www.w3.org/2000/svg"><path d="m0 905.1v-48.3c119-10.6 189.5-56.6 206.8-157.4 14.8-85.8-9.8-249.3-6.7-387.8 3.5-157 107.1-289.2 222.6-305.8 48-6.9 83-8.3 121.4-.3 35 6 63.3 26.3 76.4 52v74.2h-112.4c-98 11.1-135.6 76.9-157.4 179.9-26.1 123 101.7 561.8-170.9 593.6 272.6 31.7 144.8 470.5 170.9 593.6 21.8 103 59.3 168.8 157.4 179.9h112.4v74.2c-13.2 25.7-41.4 46-76.4 52-38.4 8-73.4 6.6-121.4-.3-115.5-16.6-219.1-148.8-222.6-305.8-3.1-138.5 21.5-302.1 6.7-387.8-17.3-101-87.8-147-206.8-157.6zm2230.4 7.7v-48.3c-119-10.6-189.5-56.6-206.8-157.4-14.8-85.8 9.8-249.3 6.7-387.8-3.5-157-107.1-289.2-222.6-305.8-48-6.9-83-8.3-121.4-.3-35 6-63.3 26.3-76.4 52v74.2h112.4c98 11.1 135.6 76.9 157.4 179.9 26.1 123-101.7 561.8 170.9 593.6-272.6 31.7-144.8 470.5-170.9 593.6-21.8 103-59.3 168.8-157.4 179.9h-112.4v74.2c13.2 25.7 41.4 46 76.4 52 38.4 8 73.4 6.6 121.4-.3 115.5-16.6 219.1-148.8 222.6-305.8 3.1-138.5-21.5-302.1-6.7-387.8 17.3-100.8 87.8-146.8 206.8-157.4z"/><path d="m944.3 935.4c0-139.7-112.7-252.9-251.8-252.9s-251.8 113.3-251.8 252.9h98.3c0-85.2 68.7-154.2 153.5-154.2s153.5 69.1 153.5 154.2zm852.1 0c0-139.7-112.7-252.9-251.8-252.9s-251.8 113.2-251.8 252.9h98.3c0-85.2 68.7-154.2 153.5-154.2s153.5 69 153.5 154.2zm-431.7 333.9c-6.1 118.6-109.4 220.1-233.8 219.2-124.8-.9-227.3-102.3-233.8-219.2v-74.2h114.7v74.2c5.7 60 59.6 109.2 119.2 107.4 60.5-1.9 116.7-48.2 119.2-107.4v-74.2h114.7v74.2z"/></svg>